{
	"asset":{
		"generator":"Khronos glTF Blender I/O v3.6.27",
		"version":"2.0"
	},
	"extensionsUsed":[
		"KHR_materials_specular",
		"KHR_materials_ior"
	],
	"scene":0,
	"scenes":[
		{
			"name":"Scene",
			"nodes":[
				0
			]
		}
	],
	"nodes":[
		{
			"mesh":0,
			"name":"wrld_glock_wrld_glock_mesh",
			"rotation":[
				0,
				0,
				-0.7071068286895752,
				0.7071068286895752
			],
			"translation":[
				-0.1159501001238823,
				0.09215495735406876,
				0.023217501118779182
			]
		}
	],
	"materials":[
		{
			"doubleSided":true,
			"extensions":{
				"KHR_materials_specular":{
					"specularColorFactor":[
						0,
						0,
						0
					]
				},
				"KHR_materials_ior":{
					"ior":1.4500000476837158
				}
			},
			"name":"glockside.bmp",
			"pbrMetallicRoughness":{
				"baseColorTexture":{
					"index":0
				},
				"metallicFactor":0,
				"roughnessFactor":0.525658369064331
			}
		},
		{
			"doubleSided":true,
			"extensions":{
				"KHR_materials_specular":{
					"specularColorFactor":[
						0,
						0,
						0
					]
				},
				"KHR_materials_ior":{
					"ior":1.4500000476837158
				}
			},
			"name":"glockback.bmp",
			"pbrMetallicRoughness":{
				"baseColorTexture":{
					"index":1
				},
				"metallicFactor":0,
				"roughnessFactor":0.525658369064331
			}
		},
		{
			"doubleSided":true,
			"extensions":{
				"KHR_materials_specular":{
					"specularColorFactor":[
						0,
						0,
						0
					]
				},
				"KHR_materials_ior":{
					"ior":1.4500000476837158
				}
			},
			"name":"glocktop1.bmp",
			"pbrMetallicRoughness":{
				"baseColorTexture":{
					"index":2
				},
				"metallicFactor":0,
				"roughnessFactor":0.525658369064331
			}
		},
		{
			"doubleSided":true,
			"extensions":{
				"KHR_materials_specular":{
					"specularColorFactor":[
						0,
						0,
						0
					]
				},
				"KHR_materials_ior":{
					"ior":1.4500000476837158
				}
			},
			"name":"glockfront.bmp",
			"pbrMetallicRoughness":{
				"baseColorTexture":{
					"index":3
				},
				"metallicFactor":0,
				"roughnessFactor":0.525658369064331
			}
		}
	],
	"meshes":[
		{
			"name":"wrld_glock_wrld_glock_mesh",
			"primitives":[
				{
					"attributes":{
						"POSITION":0,
						"NORMAL":1,
						"TEXCOORD_0":2
					},
					"indices":3,
					"material":0
				},
				{
					"attributes":{
						"POSITION":4,
						"NORMAL":5,
						"TEXCOORD_0":6
					},
					"indices":7,
					"material":1
				},
				{
					"attributes":{
						"POSITION":8,
						"NORMAL":9,
						"TEXCOORD_0":10
					},
					"indices":11,
					"material":2
				},
				{
					"attributes":{
						"POSITION":12,
						"NORMAL":13,
						"TEXCOORD_0":14
					},
					"indices":15,
					"material":3
				}
			]
		}
	],
	"textures":[
		{
			"sampler":0,
			"source":0
		},
		{
			"sampler":0,
			"source":1
		},
		{
			"sampler":0,
			"source":2
		},
		{
			"sampler":0,
			"source":3
		}
	],
	"images":[
		{
			"mimeType":"image/png",
			"name":"glockside",
			"uri":"glockside.png"
		},
		{
			"mimeType":"image/png",
			"name":"glockback",
			"uri":"glockback.png"
		},
		{
			"mimeType":"image/png",
			"name":"glocktop1",
			"uri":"glocktop1.png"
		},
		{
			"mimeType":"image/png",
			"name":"glockfront",
			"uri":"glockfront.png"
		}
	],
	"accessors":[
		{
			"bufferView":0,
			"componentType":5126,
			"count":83,
			"max":[
				0.09490799903869629,
				0.16085800528526306,
				0.003071000101044774
			],
			"min":[
				-0.08568599820137024,
				-0.12032099813222885,
				-0.05065000057220459
			],
			"type":"VEC3"
		},
		{
			"bufferView":1,
			"componentType":5126,
			"count":83,
			"type":"VEC3"
		},
		{
			"bufferView":2,
			"componentType":5126,
			"count":83,
			"type":"VEC2"
		},
		{
			"bufferView":3,
			"componentType":5123,
			"count":105,
			"type":"SCALAR"
		},
		{
			"bufferView":4,
			"componentType":5126,
			"count":16,
			"max":[
				0.09490799903869629,
				0.16085800528526306,
				0.003071000101044774
			],
			"min":[
				-0.08568599820137024,
				0.1338060051202774,
				-0.05065000057220459
			],
			"type":"VEC3"
		},
		{
			"bufferView":5,
			"componentType":5126,
			"count":16,
			"type":"VEC3"
		},
		{
			"bufferView":6,
			"componentType":5126,
			"count":16,
			"type":"VEC2"
		},
		{
			"bufferView":7,
			"componentType":5123,
			"count":24,
			"type":"SCALAR"
		},
		{
			"bufferView":8,
			"componentType":5126,
			"count":57,
			"max":[
				0.09490799903869629,
				0.15742899477481842,
				0.003071000101044774
			],
			"min":[
				-0.08568599820137024,
				-0.12032099813222885,
				-0.05065000057220459
			],
			"type":"VEC3"
		},
		{
			"bufferView":9,
			"componentType":5126,
			"count":57,
			"type":"VEC3"
		},
		{
			"bufferView":10,
			"componentType":5126,
			"count":57,
			"type":"VEC2"
		},
		{
			"bufferView":11,
			"componentType":5123,
			"count":90,
			"type":"SCALAR"
		},
		{
			"bufferView":12,
			"componentType":5126,
			"count":39,
			"max":[
				0.0945269986987114,
				0.07951399683952332,
				0.003071000101044774
			],
			"min":[
				-0.08568599820137024,
				-0.12032099813222885,
				-0.05065000057220459
			],
			"type":"VEC3"
		},
		{
			"bufferView":13,
			"componentType":5126,
			"count":39,
			"type":"VEC3"
		},
		{
			"bufferView":14,
			"componentType":5126,
			"count":39,
			"type":"VEC2"
		},
		{
			"bufferView":15,
			"componentType":5123,
			"count":45,
			"type":"SCALAR"
		}
	],
	"bufferViews":[
		{
			"buffer":0,
			"byteLength":996,
			"byteOffset":0,
			"target":34962
		},
		{
			"buffer":0,
			"byteLength":996,
			"byteOffset":996,
			"target":34962
		},
		{
			"buffer":0,
			"byteLength":664,
			"byteOffset":1992,
			"target":34962
		},
		{
			"buffer":0,
			"byteLength":210,
			"byteOffset":2656,
			"target":34963
		},
		{
			"buffer":0,
			"byteLength":192,
			"byteOffset":2868,
			"target":34962
		},
		{
			"buffer":0,
			"byteLength":192,
			"byteOffset":3060,
			"target":34962
		},
		{
			"buffer":0,
			"byteLength":128,
			"byteOffset":3252,
			"target":34962
		},
		{
			"buffer":0,
			"byteLength":48,
			"byteOffset":3380,
			"target":34963
		},
		{
			"buffer":0,
			"byteLength":684,
			"byteOffset":3428,
			"target":34962
		},
		{
			"buffer":0,
			"byteLength":684,
			"byteOffset":4112,
			"target":34962
		},
		{
			"buffer":0,
			"byteLength":456,
			"byteOffset":4796,
			"target":34962
		},
		{
			"buffer":0,
			"byteLength":180,
			"byteOffset":5252,
			"target":34963
		},
		{
			"buffer":0,
			"byteLength":468,
			"byteOffset":5432,
			"target":34962
		},
		{
			"buffer":0,
			"byteLength":468,
			"byteOffset":5900,
			"target":34962
		},
		{
			"buffer":0,
			"byteLength":312,
			"byteOffset":6368,
			"target":34962
		},
		{
			"buffer":0,
			"byteLength":90,
			"byteOffset":6680,
			"target":34963
		}
	],
	"samplers":[
		{
			"magFilter":9729,
			"minFilter":9987
		}
	],
	"buffers":[
		{
			"byteLength":6772,
			"uri":"gun.bin"
		}
	]
}
